<svg width="63" height="58" viewBox="0 0 63 58" fill="none" xmlns="http://www.w3.org/2000/svg">
<path d="M33 14.8117C34.491 14.8117 35.9484 14.3773 37.1881 13.5636C38.4278 12.7498 39.394 11.5932 39.9646 10.2399C40.5352 8.8867 40.6845 7.39763 40.3936 5.96104C40.1027 4.52445 39.3848 3.20485 38.3305 2.16912C37.2762 1.1334 35.933 0.42806 34.4707 0.142305C33.0084 -0.143452 31.4926 0.00320892 30.1152 0.56374C28.7377 1.12427 27.5603 2.0735 26.732 3.29138C25.9037 4.50926 25.4616 5.94111 25.4616 7.40585C25.4616 9.37 26.2558 11.2537 27.6695 12.6426C29.0832 14.0314 31.0007 14.8117 33 14.8117ZM33 2.11596C34.065 2.11596 35.106 2.4262 35.9915 3.00747C36.877 3.58873 37.5672 4.41489 37.9747 5.38149C38.3823 6.34809 38.4889 7.41171 38.2811 8.43785C38.0734 9.46399 37.5605 10.4066 36.8075 11.1464C36.0544 11.8862 35.095 12.39 34.0505 12.5941C33.006 12.7982 31.9233 12.6934 30.9394 12.2931C29.9555 11.8927 29.1145 11.2147 28.5229 10.3447C27.9312 9.47483 27.6154 8.45209 27.6154 7.40585C27.6154 6.00288 28.1827 4.65738 29.1925 3.66533C30.2023 2.67328 31.5719 2.11596 33 2.11596Z" fill="black"/>
<path d="M46.4292 22.8697C44.7021 21.0764 42.6209 19.648 40.3129 18.6718C38.0048 17.6956 35.5183 17.1921 33.0054 17.1921C30.4925 17.1921 28.006 17.6956 25.6979 18.6718C23.3898 19.648 21.3086 21.0764 19.5815 22.8697C19.2071 23.2626 18.9992 23.7809 19 24.3191V29.884C19 30.4452 19.2269 30.9834 19.6308 31.3802C20.0348 31.7771 20.5826 32 21.1538 32H44.8461C45.4173 32 45.9652 31.7771 46.3691 31.3802C46.773 30.9834 46.9999 30.4452 46.9999 29.884V24.3191C47.0037 23.7823 46.7997 23.2642 46.4292 22.8697ZM44.8461 29.884H21.1538V24.3085C22.6801 22.7297 24.5174 21.4724 26.5539 20.6133C28.5904 19.7542 30.7836 19.3111 33 19.3111C35.2163 19.3111 37.4095 19.7542 39.446 20.6133C41.4826 21.4724 43.3199 22.7297 44.8461 24.3085V29.884Z" fill="black"/>
<path d="M7.54594 49.675H2.98594L2.14594 52H0.705937L4.48594 41.605H6.06094L9.82594 52H8.38594L7.54594 49.675ZM7.15594 48.565L5.26594 43.285L3.37594 48.565H7.15594ZM10.9634 47.875C10.9634 47.025 11.1334 46.285 11.4734 45.655C11.8134 45.015 12.2834 44.52 12.8834 44.17C13.4934 43.82 14.1884 43.645 14.9684 43.645C15.9784 43.645 16.8084 43.89 17.4584 44.38C18.1184 44.87 18.5534 45.55 18.7634 46.42H17.2934C17.1534 45.92 16.8784 45.525 16.4684 45.235C16.0684 44.945 15.5684 44.8 14.9684 44.8C14.1884 44.8 13.5584 45.07 13.0784 45.61C12.5984 46.14 12.3584 46.895 12.3584 47.875C12.3584 48.865 12.5984 49.63 13.0784 50.17C13.5584 50.71 14.1884 50.98 14.9684 50.98C15.5684 50.98 16.0684 50.84 16.4684 50.56C16.8684 50.28 17.1434 49.88 17.2934 49.36H18.7634C18.5434 50.2 18.1034 50.875 17.4434 51.385C16.7834 51.885 15.9584 52.135 14.9684 52.135C14.1884 52.135 13.4934 51.96 12.8834 51.61C12.2834 51.26 11.8134 50.765 11.4734 50.125C11.1334 49.485 10.9634 48.735 10.9634 47.875ZM20.0747 47.875C20.0747 47.025 20.2447 46.285 20.5847 45.655C20.9247 45.015 21.3947 44.52 21.9947 44.17C22.6047 43.82 23.2997 43.645 24.0797 43.645C25.0897 43.645 25.9197 43.89 26.5697 44.38C27.2297 44.87 27.6647 45.55 27.8747 46.42H26.4047C26.2647 45.92 25.9897 45.525 25.5797 45.235C25.1797 44.945 24.6797 44.8 24.0797 44.8C23.2997 44.8 22.6697 45.07 22.1897 45.61C21.7097 46.14 21.4697 46.895 21.4697 47.875C21.4697 48.865 21.7097 49.63 22.1897 50.17C22.6697 50.71 23.2997 50.98 24.0797 50.98C24.6797 50.98 25.1797 50.84 25.5797 50.56C25.9797 50.28 26.2547 49.88 26.4047 49.36H27.8747C27.6547 50.2 27.2147 50.875 26.5547 51.385C25.8947 51.885 25.0697 52.135 24.0797 52.135C23.2997 52.135 22.6047 51.96 21.9947 51.61C21.3947 51.26 20.9247 50.765 20.5847 50.125C20.2447 49.485 20.0747 48.735 20.0747 47.875ZM33.281 52.135C32.511 52.135 31.811 51.96 31.181 51.61C30.561 51.26 30.071 50.765 29.711 50.125C29.361 49.475 29.186 48.725 29.186 47.875C29.186 47.035 29.366 46.295 29.726 45.655C30.096 45.005 30.596 44.51 31.226 44.17C31.856 43.82 32.561 43.645 33.341 43.645C34.121 43.645 34.826 43.82 35.456 44.17C36.086 44.51 36.581 45 36.941 45.64C37.311 46.28 37.496 47.025 37.496 47.875C37.496 48.725 37.306 49.475 36.926 50.125C36.556 50.765 36.051 51.26 35.411 51.61C34.771 51.96 34.061 52.135 33.281 52.135ZM33.281 50.935C33.771 50.935 34.231 50.82 34.661 50.59C35.091 50.36 35.436 50.015 35.696 49.555C35.966 49.095 36.101 48.535 36.101 47.875C36.101 47.215 35.971 46.655 35.711 46.195C35.451 45.735 35.111 45.395 34.691 45.175C34.271 44.945 33.816 44.83 33.326 44.83C32.826 44.83 32.366 44.945 31.946 45.175C31.536 45.395 31.206 45.735 30.956 46.195C30.706 46.655 30.581 47.215 30.581 47.875C30.581 48.545 30.701 49.11 30.941 49.57C31.191 50.03 31.521 50.375 31.931 50.605C32.341 50.825 32.791 50.935 33.281 50.935ZM46.5807 43.78V52H45.2157V50.785C44.9557 51.205 44.5907 51.535 44.1207 51.775C43.6607 52.005 43.1507 52.12 42.5907 52.12C41.9507 52.12 41.3757 51.99 40.8657 51.73C40.3557 51.46 39.9507 51.06 39.6507 50.53C39.3607 50 39.2157 49.355 39.2157 48.595V43.78H40.5657V48.415C40.5657 49.225 40.7707 49.85 41.1807 50.29C41.5907 50.72 42.1507 50.935 42.8607 50.935C43.5907 50.935 44.1657 50.71 44.5857 50.26C45.0057 49.81 45.2157 49.155 45.2157 48.295V43.78H46.5807ZM52.8905 43.63C53.8905 43.63 54.7005 43.935 55.3205 44.545C55.9405 45.145 56.2505 46.015 56.2505 47.155V52H54.9005V47.35C54.9005 46.53 54.6955 45.905 54.2855 45.475C53.8755 45.035 53.3155 44.815 52.6055 44.815C51.8855 44.815 51.3105 45.04 50.8805 45.49C50.4605 45.94 50.2505 46.595 50.2505 47.455V52H48.8855V43.78H50.2505V44.95C50.5205 44.53 50.8855 44.205 51.3455 43.975C51.8155 43.745 52.3305 43.63 52.8905 43.63ZM60.1452 44.905V49.75C60.1452 50.15 60.2302 50.435 60.4002 50.605C60.5702 50.765 60.8652 50.845 61.2852 50.845H62.2902V52H61.0602C60.3002 52 59.7302 51.825 59.3502 51.475C58.9702 51.125 58.7802 50.55 58.7802 49.75V44.905H57.7152V43.78H58.7802V41.71H60.1452V43.78H62.2902V44.905H60.1452Z" fill="black"/>
</svg>
