<svg width="45" height="58" viewBox="0 0 45 58" fill="none" xmlns="http://www.w3.org/2000/svg">
<path d="M10 17C10.526 17 11.048 16.88 11.534 16.65C12.0301 16.4153 12.4726 16.0811 12.834 15.668C13.206 15.248 13.5 14.748 13.7 14.2C13.9 13.652 14 13.064 14 12.472C13.9905 13.64 14.4072 14.7713 15.172 15.654C15.922 16.498 16.94 16.972 18 16.972C19.06 16.972 20.08 16.498 20.828 15.654C21.5928 14.7713 22.0095 13.64 22 12.472C21.9905 13.64 22.4072 14.7713 23.172 15.654C23.922 16.498 24.94 16.972 26 16.972C27.06 16.972 28.08 16.498 28.828 15.654C29.5928 14.7713 30.0095 13.64 30 12.472C30 13.062 30.104 13.648 30.304 14.194C30.504 14.74 30.8 15.236 31.172 15.654C31.5334 16.0647 31.9751 16.3969 32.47 16.63C32.9487 16.8548 33.4711 16.9713 34 16.9713C34.5289 16.9713 35.0513 16.8548 35.53 16.63C36.0256 16.3971 36.468 16.0649 36.83 15.654C37.2 15.236 37.494 14.74 37.696 14.194C37.898 13.648 38 13.062 38 12.472C38 10.524 35.784 4.77204 34.764 2.23004C34.6174 1.86479 34.3643 1.55212 34.0375 1.33274C33.7108 1.11336 33.3256 0.997433 32.932 1.00004H10.912C10.5073 0.999202 10.112 1.1224 9.77948 1.35304C9.44693 1.58369 9.19303 1.9107 9.052 2.29004C8.09 4.92404 6 10.81 6 12.472C6.046 13.652 6.482 14.768 7.222 15.606C7.962 16.442 8.952 16.94 10 17ZM10 17C10.656 17 11.302 16.818 11.88 16.468C12.4742 16.1056 12.9691 15.6011 13.32 15H14.682C15.0318 15.6006 15.5252 16.1051 16.118 16.468C16.698 16.818 17.344 17 18.002 17C18.66 17 19.304 16.818 19.882 16.468C20.462 16.12 20.956 15.614 21.32 15H22.682C23.0324 15.6009 23.5265 16.1053 24.12 16.468C24.698 16.818 25.344 17 26 17C26.658 17 27.304 16.818 27.884 16.468C28.464 16.12 28.956 15.614 29.32 15H30.682C31.048 15.614 31.542 16.12 32.12 16.468C32.7 16.816 33.346 17 34.002 17C34.7652 16.9967 35.5076 16.7508 36.122 16.298M10 17C9.13432 16.9779 8.3068 16.6392 7.674 16.048M8 17V31C8 31.5304 8.21071 32.0391 8.58579 32.4142C8.96086 32.7893 9.46957 33 10 33H14V23H20V33H34C34.5304 33 35.0391 32.7893 35.4142 32.4142C35.7893 32.0391 36 31.5304 36 31V17M26 23V27H30V23H26Z" stroke="#FF3D00" stroke-width="2" stroke-linecap="round" stroke-linejoin="round"/>
<path d="M9.34184 41.545V52H7.97684V47.26H2.65184V52H1.28684V41.545H2.65184V46.135H7.97684V41.545H9.34184ZM15.2576 52.135C14.4876 52.135 13.7876 51.96 13.1576 51.61C12.5376 51.26 12.0476 50.765 11.6876 50.125C11.3376 49.475 11.1626 48.725 11.1626 47.875C11.1626 47.035 11.3426 46.295 11.7026 45.655C12.0726 45.005 12.5726 44.51 13.2026 44.17C13.8326 43.82 14.5376 43.645 15.3176 43.645C16.0976 43.645 16.8026 43.82 17.4326 44.17C18.0626 44.51 18.5576 45 18.9176 45.64C19.2876 46.28 19.4726 47.025 19.4726 47.875C19.4726 48.725 19.2826 49.475 18.9026 50.125C18.5326 50.765 18.0276 51.26 17.3876 51.61C16.7476 51.96 16.0376 52.135 15.2576 52.135ZM15.2576 50.935C15.7476 50.935 16.2076 50.82 16.6376 50.59C17.0676 50.36 17.4126 50.015 17.6726 49.555C17.9426 49.095 18.0776 48.535 18.0776 47.875C18.0776 47.215 17.9476 46.655 17.6876 46.195C17.4276 45.735 17.0876 45.395 16.6676 45.175C16.2476 44.945 15.7926 44.83 15.3026 44.83C14.8026 44.83 14.3426 44.945 13.9226 45.175C13.5126 45.395 13.1826 45.735 12.9326 46.195C12.6826 46.655 12.5576 47.215 12.5576 47.875C12.5576 48.545 12.6776 49.11 12.9176 49.57C13.1676 50.03 13.4976 50.375 13.9076 50.605C14.3176 50.825 14.7676 50.935 15.2576 50.935ZM31.1523 43.63C31.7923 43.63 32.3623 43.765 32.8623 44.035C33.3623 44.295 33.7573 44.69 34.0473 45.22C34.3373 45.75 34.4823 46.395 34.4823 47.155V52H33.1323V47.35C33.1323 46.53 32.9273 45.905 32.5173 45.475C32.1173 45.035 31.5723 44.815 30.8823 44.815C30.1723 44.815 29.6073 45.045 29.1873 45.505C28.7673 45.955 28.5573 46.61 28.5573 47.47V52H27.2073V47.35C27.2073 46.53 27.0023 45.905 26.5923 45.475C26.1923 45.035 25.6473 44.815 24.9573 44.815C24.2473 44.815 23.6823 45.045 23.2623 45.505C22.8423 45.955 22.6323 46.61 22.6323 47.47V52H21.2673V43.78H22.6323V44.965C22.9023 44.535 23.2623 44.205 23.7123 43.975C24.1723 43.745 24.6773 43.63 25.2273 43.63C25.9173 43.63 26.5273 43.785 27.0573 44.095C27.5873 44.405 27.9823 44.86 28.2423 45.46C28.4723 44.88 28.8523 44.43 29.3823 44.11C29.9123 43.79 30.5023 43.63 31.1523 43.63ZM44.2214 47.575C44.2214 47.835 44.2064 48.11 44.1764 48.4H37.6064C37.6564 49.21 37.9314 49.845 38.4314 50.305C38.9414 50.755 39.5564 50.98 40.2764 50.98C40.8664 50.98 41.3564 50.845 41.7464 50.575C42.1464 50.295 42.4264 49.925 42.5864 49.465H44.0564C43.8364 50.255 43.3964 50.9 42.7364 51.4C42.0764 51.89 41.2564 52.135 40.2764 52.135C39.4964 52.135 38.7964 51.96 38.1764 51.61C37.5664 51.26 37.0864 50.765 36.7364 50.125C36.3864 49.475 36.2114 48.725 36.2114 47.875C36.2114 47.025 36.3814 46.28 36.7214 45.64C37.0614 45 37.5364 44.51 38.1464 44.17C38.7664 43.82 39.4764 43.645 40.2764 43.645C41.0564 43.645 41.7464 43.815 42.3464 44.155C42.9464 44.495 43.4064 44.965 43.7264 45.565C44.0564 46.155 44.2214 46.825 44.2214 47.575ZM42.8114 47.29C42.8114 46.77 42.6964 46.325 42.4664 45.955C42.2364 45.575 41.9214 45.29 41.5214 45.1C41.1314 44.9 40.6964 44.8 40.2164 44.8C39.5264 44.8 38.9364 45.02 38.4464 45.46C37.9664 45.9 37.6914 46.51 37.6214 47.29H42.8114Z" fill="#FF3D00"/>
</svg>
