<svg width="51" height="58" viewBox="0 0 51 58" fill="none" xmlns="http://www.w3.org/2000/svg">
<path d="M19.8 17.3617C19.8 17.0908 19.8919 16.8311 20.0556 16.6395C20.2193 16.448 20.4413 16.3404 20.6727 16.3404H29.9818C30.2133 16.3404 30.4353 16.448 30.5989 16.6395C30.7626 16.8311 30.8545 17.0908 30.8545 17.3617C30.8545 17.6326 30.7626 17.8923 30.5989 18.0839C30.4353 18.2754 30.2133 18.383 29.9818 18.383H20.6727C20.4413 18.383 20.2193 18.2754 20.0556 18.0839C19.8919 17.8923 19.8 17.6326 19.8 17.3617ZM20.6727 12.9362H29.9818C30.2133 12.9362 30.4353 12.8286 30.5989 12.637C30.7626 12.4455 30.8545 12.1858 30.8545 11.9149C30.8545 11.644 30.7626 11.3843 30.5989 11.1927C30.4353 11.0012 30.2133 10.8936 29.9818 10.8936H20.6727C20.4413 10.8936 20.2193 11.0012 20.0556 11.1927C19.8919 11.3843 19.8 11.644 19.8 11.9149C19.8 12.1858 19.8919 12.4455 20.0556 12.637C20.2193 12.8286 20.4413 12.9362 20.6727 12.9362ZM39 26.8936C39 28.2479 38.5403 29.5467 37.7219 30.5044C36.9036 31.462 35.7937 32 34.6364 32H18.3455C17.1881 32 16.0782 31.462 15.2599 30.5044C14.4416 29.5467 13.9818 28.2479 13.9818 26.8936V5.10638C13.9818 4.2938 13.706 3.51451 13.215 2.93993C12.724 2.36535 12.058 2.04255 11.3636 2.04255C10.6693 2.04255 10.0033 2.36535 9.5123 2.93993C9.0213 3.51451 8.74545 4.2938 8.74545 5.10638C8.74545 6.25702 9.55709 7.01106 9.56582 7.01787C9.65722 7.09879 9.7341 7.19998 9.79208 7.31567C9.85007 7.43136 9.88801 7.55928 9.90374 7.69212C9.91948 7.82497 9.9127 7.96014 9.88379 8.08992C9.85489 8.21971 9.80442 8.34155 9.73527 8.44851C9.66613 8.55547 9.57965 8.64544 9.48079 8.71329C9.38193 8.78114 9.27262 8.82554 9.1591 8.84395C9.04557 8.86237 8.93006 8.85443 8.81916 8.82061C8.70825 8.78678 8.60413 8.72773 8.51273 8.64681C8.45455 8.59234 7 7.29362 7 5.10638C7 3.75209 7.45974 2.45326 8.27808 1.49562C9.09642 0.537992 10.2063 0 11.3636 0H31.1455C32.3028 0 33.4127 0.537992 34.231 1.49562C35.0494 2.45326 35.5091 3.75209 35.5091 5.10638V23.1489H36.9636C37.1525 23.1489 37.3362 23.2206 37.4873 23.3532C37.5455 23.4077 39 24.7064 39 26.8936ZM20.9636 26.8936C20.9636 25.743 20.1505 24.9889 20.1433 24.9821C19.9981 24.8525 19.8914 24.673 19.838 24.4686C19.7847 24.2643 19.7874 24.0456 19.8459 23.8432C19.9043 23.6408 20.0156 23.465 20.1639 23.3404C20.3122 23.2159 20.4902 23.1489 20.6727 23.1489H33.7636V5.10638C33.7636 4.2938 33.4878 3.51451 32.9968 2.93993C32.5058 2.36535 31.8398 2.04255 31.1455 2.04255H14.8545C15.4227 2.9254 15.7292 4.00115 15.7273 5.10638V26.8936C15.7273 27.7062 16.0031 28.4855 16.4941 29.0601C16.9851 29.6346 17.6511 29.9574 18.3455 29.9574C19.0398 29.9574 19.7058 29.6346 20.1968 29.0601C20.6878 28.4855 20.9636 27.7062 20.9636 26.8936ZM37.2545 26.8936C37.2348 26.2534 37.0094 25.6456 36.6233 25.1915H22.4007C22.6034 25.7276 22.7084 26.3073 22.7091 26.8936C22.7105 27.9987 22.4041 29.0743 21.8364 29.9574H34.6364C35.3307 29.9574 35.9967 29.6346 36.4877 29.0601C36.9787 28.4855 37.2545 27.7062 37.2545 26.8936Z" fill="black"/>
<path d="M6.26561 52.105C5.29561 52.105 4.41061 51.88 3.61061 51.43C2.81061 50.97 2.17561 50.335 1.70561 49.525C1.24561 48.705 1.01561 47.785 1.01561 46.765C1.01561 45.745 1.24561 44.83 1.70561 44.02C2.17561 43.2 2.81061 42.565 3.61061 42.115C4.41061 41.655 5.29561 41.425 6.26561 41.425C7.24561 41.425 8.13561 41.655 8.93561 42.115C9.73561 42.565 10.3656 43.195 10.8256 44.005C11.2856 44.815 11.5156 45.735 11.5156 46.765C11.5156 47.795 11.2856 48.715 10.8256 49.525C10.3656 50.335 9.73561 50.97 8.93561 51.43C8.13561 51.88 7.24561 52.105 6.26561 52.105ZM6.26561 50.92C6.99561 50.92 7.65061 50.75 8.23061 50.41C8.82061 50.07 9.28061 49.585 9.61061 48.955C9.95061 48.325 10.1206 47.595 10.1206 46.765C10.1206 45.925 9.95061 45.195 9.61061 44.575C9.28061 43.945 8.82561 43.46 8.24561 43.12C7.66561 42.78 7.00561 42.61 6.26561 42.61C5.52561 42.61 4.86561 42.78 4.28561 43.12C3.70561 43.46 3.24561 43.945 2.90561 44.575C2.57561 45.195 2.41061 45.925 2.41061 46.765C2.41061 47.595 2.57561 48.325 2.90561 48.955C3.24561 49.585 3.70561 50.07 4.28561 50.41C4.87561 50.75 5.53561 50.92 6.26561 50.92ZM14.6826 45.115C14.9226 44.645 15.2626 44.28 15.7026 44.02C16.1526 43.76 16.6976 43.63 17.3376 43.63V45.04H16.9776C15.4476 45.04 14.6826 45.87 14.6826 47.53V52H13.3176V43.78H14.6826V45.115ZM18.4033 47.86C18.4033 47.02 18.5733 46.285 18.9133 45.655C19.2533 45.015 19.7183 44.52 20.3083 44.17C20.9083 43.82 21.5783 43.645 22.3183 43.645C22.9583 43.645 23.5533 43.795 24.1033 44.095C24.6533 44.385 25.0733 44.77 25.3633 45.25V40.9H26.7433V52H25.3633V50.455C25.0933 50.945 24.6933 51.35 24.1633 51.67C23.6333 51.98 23.0133 52.135 22.3033 52.135C21.5733 52.135 20.9083 51.955 20.3083 51.595C19.7183 51.235 19.2533 50.73 18.9133 50.08C18.5733 49.43 18.4033 48.69 18.4033 47.86ZM25.3633 47.875C25.3633 47.255 25.2383 46.715 24.9883 46.255C24.7383 45.795 24.3983 45.445 23.9683 45.205C23.5483 44.955 23.0833 44.83 22.5733 44.83C22.0633 44.83 21.5983 44.95 21.1783 45.19C20.7583 45.43 20.4233 45.78 20.1733 46.24C19.9233 46.7 19.7983 47.24 19.7983 47.86C19.7983 48.49 19.9233 49.04 20.1733 49.51C20.4233 49.97 20.7583 50.325 21.1783 50.575C21.5983 50.815 22.0633 50.935 22.5733 50.935C23.0833 50.935 23.5483 50.815 23.9683 50.575C24.3983 50.325 24.7383 49.97 24.9883 49.51C25.2383 49.04 25.3633 48.495 25.3633 47.875ZM36.55 47.575C36.55 47.835 36.535 48.11 36.505 48.4H29.935C29.985 49.21 30.26 49.845 30.76 50.305C31.27 50.755 31.885 50.98 32.605 50.98C33.195 50.98 33.685 50.845 34.075 50.575C34.475 50.295 34.755 49.925 34.915 49.465H36.385C36.165 50.255 35.725 50.9 35.065 51.4C34.405 51.89 33.585 52.135 32.605 52.135C31.825 52.135 31.125 51.96 30.505 51.61C29.895 51.26 29.415 50.765 29.065 50.125C28.715 49.475 28.54 48.725 28.54 47.875C28.54 47.025 28.71 46.28 29.05 45.64C29.39 45 29.865 44.51 30.475 44.17C31.095 43.82 31.805 43.645 32.605 43.645C33.385 43.645 34.075 43.815 34.675 44.155C35.275 44.495 35.735 44.965 36.055 45.565C36.385 46.155 36.55 46.825 36.55 47.575ZM35.14 47.29C35.14 46.77 35.025 46.325 34.795 45.955C34.565 45.575 34.25 45.29 33.85 45.1C33.46 44.9 33.025 44.8 32.545 44.8C31.855 44.8 31.265 45.02 30.775 45.46C30.295 45.9 30.02 46.51 29.95 47.29H35.14ZM39.7168 45.115C39.9568 44.645 40.2968 44.28 40.7368 44.02C41.1868 43.76 41.7318 43.63 42.3718 43.63V45.04H42.0118C40.4818 45.04 39.7168 45.87 39.7168 47.53V52H38.3518V43.78H39.7168V45.115ZM46.8575 52.135C46.2275 52.135 45.6625 52.03 45.1625 51.82C44.6625 51.6 44.2675 51.3 43.9775 50.92C43.6875 50.53 43.5275 50.085 43.4975 49.585H44.9075C44.9475 49.995 45.1375 50.33 45.4775 50.59C45.8275 50.85 46.2825 50.98 46.8425 50.98C47.3625 50.98 47.7725 50.865 48.0725 50.635C48.3725 50.405 48.5225 50.115 48.5225 49.765C48.5225 49.405 48.3625 49.14 48.0425 48.97C47.7225 48.79 47.2275 48.615 46.5575 48.445C45.9475 48.285 45.4475 48.125 45.0575 47.965C44.6775 47.795 44.3475 47.55 44.0675 47.23C43.7975 46.9 43.6625 46.47 43.6625 45.94C43.6625 45.52 43.7875 45.135 44.0375 44.785C44.2875 44.435 44.6425 44.16 45.1025 43.96C45.5625 43.75 46.0875 43.645 46.6775 43.645C47.5875 43.645 48.3225 43.875 48.8825 44.335C49.4425 44.795 49.7425 45.425 49.7825 46.225H48.4175C48.3875 45.795 48.2125 45.45 47.8925 45.19C47.5825 44.93 47.1625 44.8 46.6325 44.8C46.1425 44.8 45.7525 44.905 45.4625 45.115C45.1725 45.325 45.0275 45.6 45.0275 45.94C45.0275 46.21 45.1125 46.435 45.2825 46.615C45.4625 46.785 45.6825 46.925 45.9425 47.035C46.2125 47.135 46.5825 47.25 47.0525 47.38C47.6425 47.54 48.1225 47.7 48.4925 47.86C48.8625 48.01 49.1775 48.24 49.4375 48.55C49.7075 48.86 49.8475 49.265 49.8575 49.765C49.8575 50.215 49.7325 50.62 49.4825 50.98C49.2325 51.34 48.8775 51.625 48.4175 51.835C47.9675 52.035 47.4475 52.135 46.8575 52.135Z" fill="black"/>
</svg>
