<svg width="49" height="58" viewBox="0 0 49 58" fill="none" xmlns="http://www.w3.org/2000/svg">
<path d="M22.5143 24.3548V11.9905M7.2018 19.3459L20.6541 32.7982C20.718 32.8622 20.7938 32.9129 20.8772 32.9475C20.9607 32.9822 21.0501 33 21.1405 33C21.2308 33 21.3203 32.9822 21.4037 32.9475C21.4872 32.9129 21.563 32.8622 21.6268 32.7982L38.7994 15.6256C38.8632 15.5617 38.9137 15.4858 38.9481 15.4024C38.9825 15.3189 39.0002 15.2295 39 15.1392V5.40718L38.9945 5.32475L39 5.12143C38.9999 4.56311 38.8864 4.01064 38.6664 3.49751C38.4463 2.98439 38.1243 2.52133 37.7199 2.13643C37.3155 1.75153 36.837 1.45281 36.3137 1.2584C35.7903 1.06399 35.2329 0.977951 34.6752 1.00549L34.5928 1H24.858C24.6767 1.0004 24.5028 1.0725 24.3744 1.20058L7.2018 18.3732C7.13783 18.437 7.08708 18.5128 7.05245 18.5963C7.01782 18.6797 7 18.7692 7 18.8595C7 18.9499 7.01782 19.0393 7.05245 19.1228C7.08708 19.2062 7.13783 19.282 7.2018 19.3459ZM17.9917 17.2C18.2497 17.4579 18.3946 17.8078 18.3946 18.1726C18.3946 18.5374 18.2497 18.8873 17.9917 19.1453C17.7337 19.4032 17.3839 19.5482 17.019 19.5482C16.6542 19.5482 16.3044 19.4032 16.0464 19.1453C15.7884 18.8873 15.6435 18.5374 15.6435 18.1726C15.6435 17.8078 15.7884 17.4579 16.0464 17.2C16.3044 16.942 16.6542 16.7971 17.019 16.7971C17.3839 16.7971 17.7337 16.942 17.9917 17.2ZM28.9822 17.2C29.2401 17.4579 29.3851 17.8078 29.3851 18.1726C29.3851 18.5374 29.2401 18.8873 28.9822 19.1453C28.7242 19.4032 28.3743 19.5482 28.0095 19.5482C27.6447 19.5482 27.2948 19.4032 27.0369 19.1453C26.9091 19.0175 26.8078 18.8659 26.7387 18.699C26.6696 18.5321 26.634 18.3533 26.634 18.1726C26.634 17.992 26.6696 17.8131 26.7387 17.6462C26.8078 17.4793 26.9091 17.3277 27.0369 17.2C27.1646 17.0722 27.3162 16.9709 27.4831 16.9018C27.65 16.8327 27.8289 16.7971 28.0095 16.7971C28.1902 16.7971 28.369 16.8327 28.5359 16.9018C28.7028 16.9709 28.8544 17.0722 28.9822 17.2Z" stroke="black" stroke-width="2" stroke-linecap="round"/>
<path d="M8.18211 44.605C8.18211 45.475 7.88211 46.2 7.28211 46.78C6.69211 47.35 5.78711 47.635 4.56711 47.635H2.55711V52H1.19211V41.545H4.56711C5.74711 41.545 6.64211 41.83 7.25211 42.4C7.87211 42.97 8.18211 43.705 8.18211 44.605ZM4.56711 46.51C5.32711 46.51 5.88711 46.345 6.24711 46.015C6.60711 45.685 6.78711 45.215 6.78711 44.605C6.78711 43.315 6.04711 42.67 4.56711 42.67H2.55711V46.51H4.56711ZM11.2436 45.115C11.4836 44.645 11.8236 44.28 12.2636 44.02C12.7136 43.76 13.2586 43.63 13.8986 43.63V45.04H13.5386C12.0086 45.04 11.2436 45.87 11.2436 47.53V52H9.87863V43.78H11.2436V45.115ZM19.0593 52.135C18.2893 52.135 17.5893 51.96 16.9593 51.61C16.3393 51.26 15.8493 50.765 15.4893 50.125C15.1393 49.475 14.9643 48.725 14.9643 47.875C14.9643 47.035 15.1443 46.295 15.5043 45.655C15.8743 45.005 16.3743 44.51 17.0043 44.17C17.6343 43.82 18.3393 43.645 19.1193 43.645C19.8993 43.645 20.6043 43.82 21.2343 44.17C21.8643 44.51 22.3593 45 22.7193 45.64C23.0893 46.28 23.2743 47.025 23.2743 47.875C23.2743 48.725 23.0843 49.475 22.7043 50.125C22.3343 50.765 21.8293 51.26 21.1893 51.61C20.5493 51.96 19.8393 52.135 19.0593 52.135ZM19.0593 50.935C19.5493 50.935 20.0093 50.82 20.4393 50.59C20.8693 50.36 21.2143 50.015 21.4743 49.555C21.7443 49.095 21.8793 48.535 21.8793 47.875C21.8793 47.215 21.7493 46.655 21.4893 46.195C21.2293 45.735 20.8893 45.395 20.4693 45.175C20.0493 44.945 19.5943 44.83 19.1043 44.83C18.6043 44.83 18.1443 44.945 17.7243 45.175C17.3143 45.395 16.9843 45.735 16.7343 46.195C16.4843 46.655 16.3593 47.215 16.3593 47.875C16.3593 48.545 16.4793 49.11 16.7193 49.57C16.9693 50.03 17.2993 50.375 17.7093 50.605C18.1193 50.825 18.5693 50.935 19.0593 50.935ZM34.9541 43.63C35.5941 43.63 36.1641 43.765 36.6641 44.035C37.1641 44.295 37.5591 44.69 37.8491 45.22C38.1391 45.75 38.2841 46.395 38.2841 47.155V52H36.9341V47.35C36.9341 46.53 36.7291 45.905 36.3191 45.475C35.9191 45.035 35.3741 44.815 34.6841 44.815C33.9741 44.815 33.4091 45.045 32.9891 45.505C32.5691 45.955 32.3591 46.61 32.3591 47.47V52H31.0091V47.35C31.0091 46.53 30.8041 45.905 30.3941 45.475C29.9941 45.035 29.4491 44.815 28.7591 44.815C28.0491 44.815 27.4841 45.045 27.0641 45.505C26.6441 45.955 26.4341 46.61 26.4341 47.47V52H25.0691V43.78H26.4341V44.965C26.7041 44.535 27.0641 44.205 27.5141 43.975C27.9741 43.745 28.4791 43.63 29.0291 43.63C29.7191 43.63 30.3291 43.785 30.8591 44.095C31.3891 44.405 31.7841 44.86 32.0441 45.46C32.2741 44.88 32.6541 44.43 33.1841 44.11C33.7141 43.79 34.3041 43.63 34.9541 43.63ZM44.1082 52.135C43.3382 52.135 42.6382 51.96 42.0082 51.61C41.3882 51.26 40.8982 50.765 40.5382 50.125C40.1882 49.475 40.0132 48.725 40.0132 47.875C40.0132 47.035 40.1932 46.295 40.5532 45.655C40.9232 45.005 41.4232 44.51 42.0532 44.17C42.6832 43.82 43.3882 43.645 44.1682 43.645C44.9482 43.645 45.6532 43.82 46.2832 44.17C46.9132 44.51 47.4082 45 47.7682 45.64C48.1382 46.28 48.3232 47.025 48.3232 47.875C48.3232 48.725 48.1332 49.475 47.7532 50.125C47.3832 50.765 46.8782 51.26 46.2382 51.61C45.5982 51.96 44.8882 52.135 44.1082 52.135ZM44.1082 50.935C44.5982 50.935 45.0582 50.82 45.4882 50.59C45.9182 50.36 46.2632 50.015 46.5232 49.555C46.7932 49.095 46.9282 48.535 46.9282 47.875C46.9282 47.215 46.7982 46.655 46.5382 46.195C46.2782 45.735 45.9382 45.395 45.5182 45.175C45.0982 44.945 44.6432 44.83 44.1532 44.83C43.6532 44.83 43.1932 44.945 42.7732 45.175C42.3632 45.395 42.0332 45.735 41.7832 46.195C41.5332 46.655 41.4082 47.215 41.4082 47.875C41.4082 48.545 41.5282 49.11 41.7682 49.57C42.0182 50.03 42.3482 50.375 42.7582 50.605C43.1682 50.825 43.6182 50.935 44.1082 50.935Z" fill="black"/>
</svg>
