<svg width="21" height="21" viewBox="0 0 21 21" fill="none" xmlns="http://www.w3.org/2000/svg">
<path d="M7.9306 13.3568C6.41405 13.3568 5.13068 12.8314 4.0805 11.7807C3.03032 10.73 2.50495 9.4466 2.50439 7.9306C2.50384 6.4146 3.02921 5.13124 4.0805 4.0805C5.13179 3.02976 6.41516 2.50439 7.9306 2.50439C9.44605 2.50439 10.7297 3.02976 11.7815 4.0805C12.8334 5.13124 13.3585 6.4146 13.3568 7.9306C13.3568 8.54279 13.2594 9.12019 13.0646 9.66282C12.8698 10.2054 12.6055 10.6854 12.2716 11.1028L16.9465 15.7777C17.0995 15.9308 17.176 16.1256 17.176 16.3621C17.176 16.5986 17.0995 16.7934 16.9465 16.9465C16.7934 17.0995 16.5986 17.176 16.3621 17.176C16.1256 17.176 15.9308 17.0995 15.7777 16.9465L11.1028 12.2716C10.6854 12.6055 10.2054 12.8698 9.66282 13.0646C9.1202 13.2594 8.54279 13.3568 7.9306 13.3568ZM7.9306 11.6872C8.97411 11.6872 9.86122 11.3221 10.592 10.5919C11.3227 9.86178 11.6878 8.97466 11.6872 7.9306C11.6867 6.88654 11.3216 5.99971 10.592 5.27009C9.86233 4.54047 8.97522 4.17511 7.9306 4.174C6.88599 4.17288 5.99915 4.53825 5.27009 5.27009C4.54103 6.00193 4.17567 6.88877 4.174 7.9306C4.17233 8.97243 4.53769 9.85955 5.27009 10.5919C6.00249 11.3243 6.88933 11.6894 7.9306 11.6872Z" fill="#E54024"/>
</svg>
