<svg width="25" height="22" viewBox="0 0 25 22" fill="none" xmlns="http://www.w3.org/2000/svg">
<path d="M1 1H4.69621L7.46837 16.4545H22.2532M7.46837 12.8182H21.8744C21.9812 12.8183 22.0848 12.7819 22.1674 12.7153C22.2501 12.6487 22.3068 12.5559 22.3277 12.4528L23.991 4.27102C24.0044 4.20505 24.0028 4.13697 23.9862 4.07169C23.9697 4.00641 23.9386 3.94556 23.8952 3.89354C23.8518 3.84152 23.7973 3.79962 23.7354 3.77087C23.6736 3.74212 23.606 3.72723 23.5377 3.72727H5.62027M9.31648 20.0909C9.31648 20.593 8.90276 21 8.39242 21C7.88208 21 7.46837 20.593 7.46837 20.0909C7.46837 19.5888 7.88208 19.1818 8.39242 19.1818C8.90276 19.1818 9.31648 19.5888 9.31648 20.0909ZM22.2532 20.0909C22.2532 20.593 21.8395 21 21.3292 21C20.8188 21 20.4051 20.593 20.4051 20.0909C20.4051 19.5888 20.8188 19.1818 21.3292 19.1818C21.8395 19.1818 22.2532 19.5888 22.2532 20.0909Z" stroke="#FF3D00" stroke-width="2" stroke-linecap="round" stroke-linejoin="round"/>
</svg>
