<svg width="26" height="26" viewBox="0 0 26 26" fill="none" xmlns="http://www.w3.org/2000/svg">
<path d="M12.9999 2.16663C8.23325 2.16663 4.33325 6.06663 4.33325 10.8333C4.33325 16.6833 11.9166 23.2916 12.2416 23.6166C12.4583 23.725 12.7833 23.8333 12.9999 23.8333C13.2166 23.8333 13.5416 23.725 13.7583 23.6166C14.0833 23.2916 21.6666 16.6833 21.6666 10.8333C21.6666 6.06663 17.7666 2.16663 12.9999 2.16663ZM12.9999 21.3416C10.7249 19.175 6.49992 14.5166 6.49992 10.8333C6.49992 7.25829 9.42492 4.33329 12.9999 4.33329C16.5749 4.33329 19.4999 7.25829 19.4999 10.8333C19.4999 14.4083 15.2749 19.175 12.9999 21.3416ZM12.9999 6.49996C10.6166 6.49996 8.66658 8.44996 8.66658 10.8333C8.66658 13.2166 10.6166 15.1666 12.9999 15.1666C15.3833 15.1666 17.3333 13.2166 17.3333 10.8333C17.3333 8.44996 15.3833 6.49996 12.9999 6.49996ZM12.9999 13C11.8083 13 10.8333 12.025 10.8333 10.8333C10.8333 9.64163 11.8083 8.66663 12.9999 8.66663C14.1916 8.66663 15.1666 9.64163 15.1666 10.8333C15.1666 12.025 14.1916 13 12.9999 13Z" fill="#FF3D00"/>
</svg>
