<svg width="23" height="19" viewBox="0 0 23 19" fill="none" xmlns="http://www.w3.org/2000/svg">
<path fill-rule="evenodd" clip-rule="evenodd" d="M1.78547 1.72647C2.92717 0.621013 4.47543 0 6.08978 0C7.70414 0 9.2524 0.621013 10.3941 1.72647C10.6173 1.9419 10.9047 2.21 11.2562 2.53078C11.6069 2.21 11.8938 1.9419 12.117 1.72647C13.2539 0.63048 14.7915 0.0133458 16.3956 0.00918492C17.9996 0.00502402 19.5406 0.614173 20.6835 1.70425C21.8265 2.79433 22.4791 4.27726 22.4995 5.83076C22.5199 7.38426 21.9065 8.8828 20.7926 10.0007L12.1158 18.4047C11.8875 18.6258 11.5778 18.75 11.255 18.75C10.9321 18.75 10.6224 18.6258 10.3941 18.4047L1.71728 10.0019C0.604422 8.89026 -0.0123429 7.39926 0.000187252 5.8509C0.0127174 4.30254 0.654755 2.82109 1.78547 1.72647Z" fill="#FF3D00"/>
</svg>
